<?xml version="1.0" encoding="UTF-8" standalone="no"?>
<!-- Generator: Adobe Illustrator 16.0.0, SVG Export Plug-In . SVG Version: 6.00 Build 0)  -->

<svg
   xmlns:dc="http://purl.org/dc/elements/1.1/"
   xmlns:cc="http://creativecommons.org/ns#"
   xmlns:rdf="http://www.w3.org/1999/02/22-rdf-syntax-ns#"
   xmlns:svg="http://www.w3.org/2000/svg"
   xmlns="http://www.w3.org/2000/svg"
   xmlns:sodipodi="http://sodipodi.sourceforge.net/DTD/sodipodi-0.dtd"
   xmlns:inkscape="http://www.inkscape.org/namespaces/inkscape"
   version="1.1"
   id="Calque_1"
   x="0px"
   y="0px"
   width="3127.3628"
   height="524.34766"
   viewBox="0 0 3127.3629 524.34765"
   enable-background="new 0 0 316 74"
   xml:space="preserve"
   sodipodi:docname="octorgb.svg"
   inkscape:version="0.92.3 (2405546, 2018-03-11)"><metadata
   id="metadata967"><rdf:RDF><cc:Work
       rdf:about=""><dc:format>image/svg+xml</dc:format><dc:type
         rdf:resource="http://purl.org/dc/dcmitype/StillImage" /><dc:title></dc:title></cc:Work></rdf:RDF></metadata><defs
   id="defs965" /><sodipodi:namedview
   pagecolor="#ffffff"
   bordercolor="#666666"
   borderopacity="1"
   objecttolerance="10"
   gridtolerance="10"
   guidetolerance="10"
   inkscape:pageopacity="0"
   inkscape:pageshadow="2"
   inkscape:window-width="1920"
   inkscape:window-height="1015"
   id="namedview963"
   showgrid="false"
   fit-margin-top="0"
   fit-margin-left="0"
   fit-margin-right="0"
   fit-margin-bottom="0"
   inkscape:zoom="0.13706487"
   inkscape:cx="1548.9164"
   inkscape:cy="-1.1083984"
   inkscape:window-x="3840"
   inkscape:window-y="0"
   inkscape:window-maximized="1"
   inkscape:current-layer="Calque_1" />
<path
   d="m 0,260.61171 c 0,174.00695 131.87346,263.73596 259.83617,263.73596 131.86244,0 262.17378,-93.62882 262.17378,-263.73596 0,-108.45258 -78.80512,-193.50614 -127.187,-193.50614 h -7.7997 c -5.54944,0 -16.47331,-21.84781 -23.41003,-21.84781 h -57.74371 c -7.62493,0 -16.47324,-23.40994 -23.40996,-23.40994 H 179.45799 c -13.20695,0 -23.91239,37.45808 -31.99607,37.45808 H 136.53797 C 81.153739,59.3059 0,152.93474 0,260.61171 Z m 1106.4392,263.73596 c 43.6956,0 92.0668,-14.82374 119.3765,-29.6475 V 388.57439 c -78.8051,28.87189 -131.8625,24.97206 -131.8625,-48.38199 v -98.3152 h 131.0869 V 126.40054 H 1093.9532 V 74.11873 c 0,-10.14832 -4.6863,-14.04816 -12.4861,-14.04816 -15.5994,0 -15.5994,-24.18552 -24.1856,-24.18552 h -49.944 c -7.0241,0 -15.5993,24.18552 -23.40994,24.18552 -8.58619,0 -14.82384,3.12424 -14.82384,12.48603 v 287.1459 c 0,104.56366 35.89598,164.64517 137.33548,164.64517 z m 162.2965,-202.09233 c 0,124.06285 89.729,202.09233 198.9681,202.09233 98.3153,0 198.1925,-69.44329 198.1925,-202.09233 0,-85.05357 -72.5785,-162.29654 -149.8105,-162.29654 -9.3617,0 -10.9239,-34.33385 -23.4099,-34.33385 h -50.7196 c -13.2617,0 -10.1374,21.84784 -24.9722,21.84784 -34.3231,0 -148.2484,60.85709 -148.2484,174.78255 z m -700.69242,1.56211 c 0,124.84937 89.729,199.75461 199.75478,199.75461 70.21878,0 139.67308,-39.7958 166.98277,-90.51551 L 829.44158,369.86174 c -13.26171,21.84782 -37.45816,35.88504 -60.85702,35.88504 -46.81999,0 -71.78113,-35.10944 -71.78113,-76.46736 0,-41.34701 35.10946,-74.90526 71.78113,-74.90526 24.18535,0 43.6955,5.46197 61.64352,35.10944 l 99.10168,-72.56753 c -19.51015,-33.54733 -54.61954,-59.29498 -88.95344,-59.29498 -11.69943,0 -10.92395,-35.10945 -23.40996,-35.10945 h -55.40594 c -7.79978,0 -12.48608,20.28569 -23.40988,20.28569 h -21.07235 c -11.69943,0 -12.486,22.63437 -23.40988,22.63437 -63.2058,-0.0108 -125.62503,84.2561 -125.62503,158.38575 z M 2859.7268,119.3874 h 49.9332 c 40.5824,0 63.2057,16.38586 63.2057,45.25777 0,32.77173 -19.5099,47.59546 -60.0814,47.59546 h -53.0575 z M 260.61173,411.20872 c -78.80504,0 -131.86253,-60.08149 -131.86253,-142.78641 0,-81.92932 53.05749,-142.01084 131.86253,-142.01084 78.02948,0 132.64901,60.08152 132.64901,142.01084 0,82.70492 -54.61953,142.78641 -132.64901,142.78641 z m 1207.09207,-7.79966 c -39.7959,0 -71.7811,-32.77172 -71.7811,-74.12964 0,-41.34701 31.9852,-74.12965 71.7811,-74.12965 39.0093,0 71.7811,32.77171 71.7811,74.12965 0.01,41.35792 -32.7608,74.12964 -71.7811,74.12964 z m 1456.7799,-92.85322 c 49.1575,0 69.4432,17.94797 69.4432,47.59547 0,28.8719 -19.51,47.58455 -69.4432,47.58455 h -63.1948 v -95.19095 h 63.1948 z M 2674.7959,230.1777 h -259.0496 v 102.21503 h 129.5247 c -6.2375,43.69563 -31.9961,91.2911 -121.736,91.2911 -91.2802,0 -135.7624,-72.57844 -135.7624,-155.28338 0,-77.24297 53.8332,-142.01082 135.7624,-142.01082 53.0573,0 90.5155,21.84782 110.0257,47.59549 l 97.5286,-76.46738 C 2617.052,74.88338 2588.1801,47.57363 2531.9985,47.57363 h -32.7717 c -9.3509,0 -10.1484,-41.35791 -23.4099,-41.35791 h -90.5156 c -9.3508,0 -14.8127,25.74764 -23.4098,25.74764 h -35.1095 c -10.1484,0 -15.6104,23.40994 -24.9722,23.40994 -60.857,0 -140.4486,91.29111 -140.4486,213.01624 0,149.0349 104.5637,255.93628 261.3982,255.93628 138.122,0 252.0255,-76.46737 252.0255,-263.73595 V 230.1777 Z m 452.5668,134.99768 c 0,-68.66769 -50.7198,-117.82529 -113.9256,-119.3874 71.0055,-17.16147 90.5157,-55.39515 90.5157,-106.9014 0,-54.61954 -29.6475,-97.53957 -83.4917,-97.53957 h -35.1204 c -7.7997,0 -3.1133,-24.18554 -15.6103,-24.18554 H 2864.3912 C 2853.4674,17.16147 2859.7048,0 2848.7809,0 h -81.9292 c -10.9241,0 -7.0242,41.35794 -19.4992,41.35794 -10.924,0 -14.0482,7.79966 -14.0482,19.51008 l 1.562,455.6909 h 191.1686 c 135.7841,-0.0108 201.3277,-53.06836 201.3278,-151.38354 z M 1906.2225,337.07909 2003.7621,516.548 h 140.4376 l -120.163,-213.01625 z m -2.3378,-206.76778 c 46.8199,0 75.6917,14.04814 75.6917,53.83304 0,42.92004 -30.423,60.86802 -75.6917,60.86802 h -48.3819 V 130.31131 Z m -22.6345,213.01624 c 114.7013,0 226.289,-27.30976 226.289,-173.22042 0,-75.68086 -43.6957,-120.163 -125.6249,-120.163 -14.8239,0 -16.3858,-23.40996 -27.3099,-23.40996 h -74.1296 C 1866.4268,26.53417 1867.2132,0 1857.0649,0 H 1774.36 c -12.4969,0 -7.8106,42.13352 -23.4208,42.13352 -8.5754,0 -17.948,7.02408 -17.948,21.84781 V 516.548 h 124.8492 V 343.32755 Z"
   id="path960"
   inkscape:connector-curvature="0"
   style="fill:#ea5b0c;stroke-width:10.92390919" />
</svg>