<?xml version="1.0" encoding="utf-8"?>
<!-- Generator: Adobe Illustrator 16.0.0, SVG Export Plug-In . SVG Version: 6.00 Build 0)  -->
<!DOCTYPE svg PUBLIC "-//W3C//DTD SVG 1.1//EN" "http://www.w3.org/Graphics/SVG/1.1/DTD/svg11.dtd">
<svg version="1.1" id="Calque_1" xmlns="http://www.w3.org/2000/svg" xmlns:xlink="http://www.w3.org/1999/xlink" x="0px" y="0px"
	 width="316px" height="74px" viewBox="0 0 316 74" enable-background="new 0 0 316 74" xml:space="preserve">
<path fill="#333333" d="M10.357,32.357c0,15.929,12.072,24.143,23.786,24.143c12.071,0,24-8.571,24-24.143
	c0-9.928-7.214-17.714-11.643-17.714h-0.714c-0.508,0-1.508-2-2.143-2h-5.286c-0.698,0-1.508-2.143-2.143-2.143h-9.429
	c-1.209,0-2.189,3.429-2.929,3.429h-1C17.786,13.929,10.357,22.5,10.357,32.357z M111.643,56.5c4,0,8.428-1.357,10.928-2.714v-9.715
	c-7.214,2.643-12.071,2.286-12.071-4.429v-9h12V20.071h-12v-4.786c0-0.929-0.429-1.286-1.143-1.286
	c-1.428,0-1.428-2.214-2.214-2.214h-4.572c-0.643,0-1.428,2.214-2.143,2.214c-0.786,0-1.357,0.286-1.357,1.143v26.286
	C99.071,51,102.357,56.5,111.643,56.5z M126.5,38c0,11.357,8.214,18.5,18.214,18.5c9,0,18.143-6.357,18.143-18.5
	c0-7.786-6.644-14.857-13.714-14.857c-0.857,0-1-3.143-2.143-3.143h-4.643c-1.214,0-0.928,2-2.286,2
	C136.929,22,126.5,27.571,126.5,38z M62.357,38.143c0,11.429,8.214,18.286,18.286,18.286c6.428,0,12.786-3.643,15.286-8.286
	l-9.643-5.785c-1.214,2-3.429,3.285-5.571,3.285c-4.286,0-6.571-3.214-6.571-7c0-3.785,3.214-6.857,6.571-6.857
	c2.214,0,4,0.5,5.643,3.214l9.072-6.643c-1.786-3.071-5-5.428-8.143-5.428c-1.071,0-1-3.214-2.143-3.214h-5.072
	c-0.714,0-1.143,1.857-2.143,1.857H76c-1.071,0-1.143,2.072-2.143,2.072C68.071,23.643,62.357,31.357,62.357,38.143z
	 M272.143,19.429h4.571c3.715,0,5.786,1.5,5.786,4.143c0,3-1.786,4.357-5.5,4.357h-4.857V19.429z M34.214,46.143
	c-7.214,0-12.071-5.5-12.071-13.071c0-7.5,4.857-13,12.071-13c7.143,0,12.143,5.5,12.143,13
	C46.357,40.643,41.357,46.143,34.214,46.143z M144.714,45.429c-3.643,0-6.571-3-6.571-6.786c0-3.785,2.928-6.786,6.571-6.786
	c3.571,0,6.571,3,6.571,6.786C151.286,42.429,148.286,45.429,144.714,45.429z M278.071,36.929c4.5,0,6.357,1.643,6.357,4.357
	c0,2.643-1.786,4.356-6.357,4.356h-5.785v-8.714H278.071z M255.214,29.571H231.5v9.357h11.857c-0.571,4-2.929,8.357-11.144,8.357
	c-8.356,0-12.428-6.644-12.428-14.215c0-7.071,4.928-13,12.428-13c4.857,0,8.286,2,10.072,4.357l8.928-7
	c-1.285-2.072-3.928-4.572-9.071-4.572h-3c-0.856,0-0.929-3.786-2.143-3.786h-8.286c-0.856,0-1.356,2.357-2.143,2.357h-3.214
	c-0.929,0-1.429,2.143-2.286,2.143c-5.571,0-12.857,8.357-12.857,19.5c0,13.643,9.572,23.429,23.929,23.429
	c12.644,0,23.071-7,23.071-24.143V29.571z M296.643,41.929c0-6.286-4.643-10.786-10.429-10.929c6.5-1.571,8.286-5.071,8.286-9.786
	c0-5-2.714-8.929-7.643-8.929h-3.215c-0.714,0-0.285-2.214-1.429-2.214h-9.643c-1,0-0.429-1.571-1.429-1.571h-7.5
	c-1,0-0.643,3.786-1.785,3.786c-1,0-1.286,0.714-1.286,1.786l0.143,41.715h17.5C290.643,55.786,296.643,50.929,296.643,41.929z
	 M184.857,39.357l8.929,16.429h12.856l-11-19.5L184.857,39.357z M184.643,20.429c4.286,0,6.929,1.286,6.929,4.928
	c0,3.929-2.785,5.572-6.929,5.572h-4.429v-10.5H184.643z M182.571,39.929c10.5,0,20.715-2.5,20.715-15.857c0-6.928-4-11-11.5-11
	c-1.357,0-1.5-2.143-2.5-2.143H182.5c-1.286,0-1.214-2.429-2.143-2.429h-7.571c-1.144,0-0.715,3.857-2.144,3.857
	c-0.785,0-1.643,0.643-1.643,2v41.429h11.429V39.929H182.571z"/>
</svg>
